<svg width="369" height="78" viewBox="0 0 369 78" fill="none" xmlns="http://www.w3.org/2000/svg">
<g clip-path="url(#clip0)">
<path d="M217.853 26.3924C220.015 25.5094 222.52 25.1169 225.32 25.1169V37.1358C224.092 36.9886 223.109 36.9396 222.274 36.9396C219.425 36.9396 217.166 37.7245 215.545 39.2452C213.924 40.766 213.138 43.1698 213.138 46.3584V63.7735H199.777V25.0679H212.499V30.2679C213.924 28.5509 215.692 27.2264 217.853 26.3924Z" fill="url(#paint0_linear)"/>
<path d="M115.239 25.0678H95.3938V12.6075H148.347V25.0678H129.14V63.7735H115.239V25.0678Z" fill="url(#paint1_linear)"/>
<path d="M177.476 30.366C174.921 26.8339 170.942 25.1169 165.539 25.1169C162.15 25.1169 159.055 25.9018 156.206 27.4226C153.357 28.9433 151.097 31.1018 149.378 33.8981C147.708 36.6943 146.824 39.883 146.824 43.4641C146.824 47.0943 147.659 50.332 149.378 53.1282C151.048 55.9245 153.357 58.083 156.206 59.6037C159.055 61.1245 162.199 61.9094 165.539 61.9094C170.5 61.9094 174.283 60.3886 176.837 57.3962V58.6716C176.837 61.7132 176.002 64.0188 174.381 65.5396C172.76 67.0603 170.157 67.8452 166.669 67.8452C164.36 67.8452 162.051 67.5018 159.694 66.766C157.336 66.0301 155.371 65.049 153.848 63.7735L148.985 73.0943C151.294 74.7132 154.045 75.9886 157.336 76.8226C160.627 77.6565 164.115 78.0981 167.897 78.0981C175.118 78.0981 180.619 76.332 184.5 72.7999C188.331 69.2679 190.247 63.9698 190.247 56.9056V25.0679H177.525V30.366H177.476ZM174.627 49.0075C173.055 50.4792 171.09 51.166 168.683 51.166C166.276 51.166 164.311 50.4301 162.69 49.0075C161.118 47.5358 160.283 45.6716 160.283 43.415C160.283 41.1094 161.069 39.2452 162.641 37.8226C164.213 36.3999 166.227 35.6641 168.634 35.6641C171.09 35.6641 173.055 36.3999 174.627 37.8226C176.149 39.2452 176.935 41.1094 176.935 43.415C176.984 45.7207 176.198 47.5849 174.627 49.0075Z" fill="url(#paint2_linear)"/>
<path d="M263.192 29.3849C259.852 26.4905 255.038 25.0679 248.702 25.0679C245.656 25.0679 242.611 25.4603 239.614 26.2452C236.569 27.0301 234.014 28.1094 231.902 29.532L236.421 38.6075C237.748 37.5773 239.319 36.7924 241.186 36.2037C243.053 35.615 244.919 35.3207 246.737 35.3207C251.895 35.3207 254.596 37.332 254.842 41.3547H247.228C241.481 41.3547 237.207 42.3358 234.456 44.3471C231.706 46.3584 230.33 49.1547 230.33 52.7358C230.33 54.9924 230.871 57.0037 232 58.7207C233.081 60.4867 234.751 61.8603 236.863 62.8905C239.025 63.9207 241.579 64.4113 244.526 64.4113C250.126 64.4113 253.859 62.5471 255.775 58.8679V63.7735H268.203V42.6301C268.154 36.6943 266.484 32.2792 263.192 29.3849ZM254.793 51.5584C254.252 53.0301 253.417 54.1094 252.238 54.8452C251.059 55.5811 249.684 55.9735 248.161 55.9735C246.639 55.9735 245.41 55.6301 244.526 54.9433C243.642 54.2565 243.2 53.3245 243.2 52.1471C243.2 49.5962 245.165 48.2716 249.045 48.2716H254.793V51.5584Z" fill="url(#paint3_linear)"/>
<path d="M306.223 28.9924C303.718 26.3924 300.23 25.0678 295.662 25.0678C292.174 25.0678 289.03 25.8527 286.181 27.4716C283.332 29.0414 281.073 31.3471 279.403 34.3395C277.732 37.332 276.897 40.7659 276.897 44.6905C276.897 48.615 277.732 52.098 279.403 55.0905C281.073 58.0829 283.332 60.3886 286.181 62.0075C289.03 63.6263 292.223 64.4112 295.662 64.4112C300.623 64.4112 304.356 62.9395 306.861 59.9961V63.7735H319.584V12.6075H306.223V28.9924ZM304.209 51.3622C302.686 52.981 300.819 53.7659 298.511 53.7659C296.153 53.7659 294.237 52.981 292.764 51.3622C291.241 49.7433 290.504 47.5358 290.504 44.6414C290.504 41.8452 291.241 39.6376 292.764 38.0188C294.286 36.449 296.202 35.615 298.511 35.615C300.869 35.615 302.784 36.3999 304.258 38.0188C305.732 39.5886 306.468 41.7961 306.468 44.6414C306.419 47.5358 305.682 49.7433 304.209 51.3622Z" fill="url(#paint4_linear)"/>
<path d="M369 44.7886C369 40.7169 368.116 37.1849 366.298 34.2415C364.481 31.249 362.025 28.9924 358.93 27.4226C355.835 25.8528 352.397 25.0679 348.615 25.0679C344.636 25.0679 341.05 25.9018 337.857 27.6188C334.664 29.2867 332.159 31.6415 330.391 34.5849C328.573 37.5773 327.689 40.9132 327.689 44.6415C327.689 48.4188 328.622 51.8037 330.489 54.8452C332.355 57.8377 334.959 60.1924 338.348 61.8603C341.738 63.5282 345.618 64.4113 350.088 64.4113C357.211 64.4113 362.614 62.3509 366.347 58.2301L359.323 50.9207C357.948 52.0981 356.621 52.932 355.295 53.4716C353.969 54.0113 352.397 54.2565 350.53 54.2565C348.074 54.2565 346.06 53.7169 344.439 52.6867C342.818 51.6565 341.738 50.1358 341.148 48.1735H368.853C368.951 46.015 369 44.8867 369 44.7886ZM340.903 41.1094C341.295 39.0981 342.18 37.5282 343.555 36.3509C344.93 35.1735 346.65 34.5849 348.713 34.5849C350.776 34.5849 352.495 35.1735 353.871 36.3509C355.246 37.5282 356.13 39.0981 356.523 41.1094H340.903Z" fill="url(#paint5_linear)"/>
<path d="M42.4409 0C19.01 0 0 18.9849 0 42.3849C0 57.2981 7.71206 70.3962 19.403 77.9509C23.8239 69.7585 32.4692 64.2151 42.4409 64.2151C52.4125 64.2151 61.0579 69.7585 65.4788 77.9509C77.1697 70.3962 84.8818 57.2981 84.8818 42.3849C84.8818 18.9849 65.8718 0 42.4409 0ZM36.3007 55.7774C27.115 53.1283 20.3854 44.6906 20.3854 34.634C20.3854 34.2415 20.4345 33.8491 20.4345 33.4566H36.3007V55.7774ZM24.9046 21.3396C28.9325 16.0415 35.2692 12.6075 42.4409 12.6075C49.6126 12.6075 55.9493 16.0415 59.9772 21.3396H24.9046ZM48.4337 55.8264V33.4566H64.4473C64.4473 33.8491 64.4964 34.2415 64.4964 34.634C64.4964 44.7396 57.7177 53.2264 48.4337 55.8264Z" fill="url(#paint6_linear)"/>
</g>
<defs>
<linearGradient id="paint0_linear" x1="0.511205" y1="44.4239" x2="370.855" y2="44.4239" gradientUnits="userSpaceOnUse">
<stop stop-color="#58C0CD"/>
<stop offset="1" stop-color="#ABEEC2"/>
</linearGradient>
<linearGradient id="paint1_linear" x1="0.511182" y1="38.1866" x2="370.855" y2="38.1866" gradientUnits="userSpaceOnUse">
<stop stop-color="#58C0CD"/>
<stop offset="1" stop-color="#ABEEC2"/>
</linearGradient>
<linearGradient id="paint2_linear" x1="0.511072" y1="51.5495" x2="370.855" y2="51.5495" gradientUnits="userSpaceOnUse">
<stop stop-color="#58C0CD"/>
<stop offset="1" stop-color="#ABEEC2"/>
</linearGradient>
<linearGradient id="paint3_linear" x1="0.511254" y1="44.7399" x2="370.855" y2="44.7399" gradientUnits="userSpaceOnUse">
<stop stop-color="#58C0CD"/>
<stop offset="1" stop-color="#ABEEC2"/>
</linearGradient>
<linearGradient id="paint4_linear" x1="0.511131" y1="38.5027" x2="370.855" y2="38.5027" gradientUnits="userSpaceOnUse">
<stop stop-color="#58C0CD"/>
<stop offset="1" stop-color="#ABEEC2"/>
</linearGradient>
<linearGradient id="paint5_linear" x1="0.510856" y1="44.7399" x2="370.855" y2="44.7399" gradientUnits="userSpaceOnUse">
<stop stop-color="#58C0CD"/>
<stop offset="1" stop-color="#ABEEC2"/>
</linearGradient>
<linearGradient id="paint6_linear" x1="0.511108" y1="38.9827" x2="370.855" y2="38.9827" gradientUnits="userSpaceOnUse">
<stop stop-color="#58C0CD"/>
<stop offset="1" stop-color="#ABEEC2"/>
</linearGradient>
<clipPath id="clip0">
<rect width="369" height="78" fill="white"/>
</clipPath>
</defs>
</svg>
