<svg width="85" height="78" viewBox="0 0 85 78" fill="none" xmlns="http://www.w3.org/2000/svg">
<path d="M42.4409 0C19.01 0 0 18.9849 0 42.3849C0 57.2981 7.71206 70.3962 19.403 77.9509C23.8239 69.7585 32.4692 64.2151 42.4409 64.2151C52.4125 64.2151 61.0579 69.7585 65.4788 77.9509C77.1697 70.3962 84.8818 57.2981 84.8818 42.3849C84.8818 18.9849 65.8718 0 42.4409 0ZM36.3007 55.7774C27.115 53.1283 20.3854 44.6906 20.3854 34.634C20.3854 34.2415 20.4345 33.8491 20.4345 33.4566H36.3007V55.7774ZM24.9046 21.3396C28.9325 16.0415 35.2692 12.6075 42.4409 12.6075C49.6126 12.6075 55.9493 16.0415 59.9772 21.3396H24.9046ZM48.4337 55.8264V33.4566H64.4473C64.4473 33.8491 64.4964 34.2415 64.4964 34.634C64.4964 44.7396 57.7177 53.2264 48.4337 55.8264Z" fill="url(#paint0_linear)"/>
<defs>
<linearGradient id="paint0_linear" x1="0.511108" y1="38.9827" x2="370.855" y2="38.9827" gradientUnits="userSpaceOnUse">
<stop stop-color="#58C0CD"/>
<stop offset="1" stop-color="#ABEEC2"/>
</linearGradient>
</defs>
</svg>
